<mxfile host="Electron" agent="Mozilla/5.0 (Windows NT 10.0; Win64; x64) AppleWebKit/537.36 (KHTML, like Gecko) draw.io/26.0.7 Chrome/128.0.6613.186 Electron/32.2.5 Safari/537.36" version="26.0.7">
  <diagram name="Page-1" id="RzzOeVVuILVj-rKlgHVC">
    <mxGraphModel dx="954" dy="657" grid="1" gridSize="10" guides="1" tooltips="1" connect="1" arrows="1" fold="1" page="1" pageScale="1" pageWidth="827" pageHeight="1169" math="0" shadow="0">
      <root>
        <mxCell id="0" />
        <mxCell id="1" parent="0" />
        <mxCell id="fD6NxuLiDfMajq7Scz1s-35" style="edgeStyle=orthogonalEdgeStyle;rounded=0;orthogonalLoop=1;jettySize=auto;html=1;exitX=0.5;exitY=1;exitDx=0;exitDy=0;entryX=0.5;entryY=0;entryDx=0;entryDy=0;fontFamily=Times New Roman;" parent="1" source="fD6NxuLiDfMajq7Scz1s-1" target="fD6NxuLiDfMajq7Scz1s-2" edge="1">
          <mxGeometry relative="1" as="geometry" />
        </mxCell>
        <mxCell id="fD6NxuLiDfMajq7Scz1s-36" style="edgeStyle=orthogonalEdgeStyle;rounded=0;orthogonalLoop=1;jettySize=auto;html=1;exitX=0.5;exitY=1;exitDx=0;exitDy=0;fontFamily=Times New Roman;" parent="1" source="fD6NxuLiDfMajq7Scz1s-1" target="fD6NxuLiDfMajq7Scz1s-4" edge="1">
          <mxGeometry relative="1" as="geometry" />
        </mxCell>
        <mxCell id="fD6NxuLiDfMajq7Scz1s-1" value="Modulation" style="rounded=0;whiteSpace=wrap;html=1;fontFamily=Times New Roman;fillColor=none;fontStyle=1" parent="1" vertex="1">
          <mxGeometry x="460" y="120" width="80" height="40" as="geometry" />
        </mxCell>
        <mxCell id="fD6NxuLiDfMajq7Scz1s-30" style="edgeStyle=orthogonalEdgeStyle;rounded=0;orthogonalLoop=1;jettySize=auto;html=1;exitX=0.5;exitY=1;exitDx=0;exitDy=0;entryX=0.5;entryY=0;entryDx=0;entryDy=0;fontFamily=Times New Roman;" parent="1" source="fD6NxuLiDfMajq7Scz1s-2" target="fD6NxuLiDfMajq7Scz1s-3" edge="1">
          <mxGeometry relative="1" as="geometry" />
        </mxCell>
        <mxCell id="fD6NxuLiDfMajq7Scz1s-31" style="edgeStyle=orthogonalEdgeStyle;rounded=0;orthogonalLoop=1;jettySize=auto;html=1;exitX=0.5;exitY=1;exitDx=0;exitDy=0;fontFamily=Times New Roman;" parent="1" source="fD6NxuLiDfMajq7Scz1s-2" target="fD6NxuLiDfMajq7Scz1s-5" edge="1">
          <mxGeometry relative="1" as="geometry" />
        </mxCell>
        <mxCell id="fD6NxuLiDfMajq7Scz1s-2" value="Analog&amp;nbsp;&lt;div&gt;Carrier&lt;/div&gt;" style="rounded=0;whiteSpace=wrap;html=1;fontFamily=Times New Roman;fillColor=none;" parent="1" vertex="1">
          <mxGeometry x="210" y="200" width="80" height="40" as="geometry" />
        </mxCell>
        <mxCell id="fD6NxuLiDfMajq7Scz1s-19" style="edgeStyle=orthogonalEdgeStyle;rounded=0;orthogonalLoop=1;jettySize=auto;html=1;exitX=0.5;exitY=1;exitDx=0;exitDy=0;fontFamily=Times New Roman;" parent="1" source="fD6NxuLiDfMajq7Scz1s-3" target="fD6NxuLiDfMajq7Scz1s-8" edge="1">
          <mxGeometry relative="1" as="geometry" />
        </mxCell>
        <mxCell id="fD6NxuLiDfMajq7Scz1s-20" style="edgeStyle=orthogonalEdgeStyle;rounded=0;orthogonalLoop=1;jettySize=auto;html=1;exitX=0.5;exitY=1;exitDx=0;exitDy=0;entryX=0.5;entryY=0;entryDx=0;entryDy=0;fontFamily=Times New Roman;" parent="1" source="fD6NxuLiDfMajq7Scz1s-3" target="fD6NxuLiDfMajq7Scz1s-9" edge="1">
          <mxGeometry relative="1" as="geometry" />
        </mxCell>
        <mxCell id="fD6NxuLiDfMajq7Scz1s-21" style="edgeStyle=orthogonalEdgeStyle;rounded=0;orthogonalLoop=1;jettySize=auto;html=1;exitX=0.5;exitY=1;exitDx=0;exitDy=0;entryX=0.5;entryY=0;entryDx=0;entryDy=0;fontFamily=Times New Roman;" parent="1" source="fD6NxuLiDfMajq7Scz1s-3" target="fD6NxuLiDfMajq7Scz1s-10" edge="1">
          <mxGeometry relative="1" as="geometry" />
        </mxCell>
        <mxCell id="fD6NxuLiDfMajq7Scz1s-3" value="Analog Data" style="rounded=0;whiteSpace=wrap;html=1;fontFamily=Times New Roman;fillColor=none;" parent="1" vertex="1">
          <mxGeometry x="70" y="280" width="80" height="40" as="geometry" />
        </mxCell>
        <mxCell id="fD6NxuLiDfMajq7Scz1s-33" style="edgeStyle=orthogonalEdgeStyle;rounded=0;orthogonalLoop=1;jettySize=auto;html=1;exitX=0.5;exitY=1;exitDx=0;exitDy=0;entryX=0.5;entryY=0;entryDx=0;entryDy=0;fontFamily=Times New Roman;" parent="1" source="fD6NxuLiDfMajq7Scz1s-4" target="fD6NxuLiDfMajq7Scz1s-6" edge="1">
          <mxGeometry relative="1" as="geometry" />
        </mxCell>
        <mxCell id="fD6NxuLiDfMajq7Scz1s-34" style="edgeStyle=orthogonalEdgeStyle;rounded=0;orthogonalLoop=1;jettySize=auto;html=1;exitX=0.5;exitY=1;exitDx=0;exitDy=0;entryX=0.5;entryY=0;entryDx=0;entryDy=0;fontFamily=Times New Roman;" parent="1" source="fD6NxuLiDfMajq7Scz1s-4" target="fD6NxuLiDfMajq7Scz1s-7" edge="1">
          <mxGeometry relative="1" as="geometry" />
        </mxCell>
        <mxCell id="fD6NxuLiDfMajq7Scz1s-4" value="Digital&amp;nbsp;&lt;div&gt;Carrier&lt;/div&gt;" style="rounded=0;whiteSpace=wrap;html=1;fontFamily=Times New Roman;fillColor=none;" parent="1" vertex="1">
          <mxGeometry x="688" y="200" width="80" height="40" as="geometry" />
        </mxCell>
        <mxCell id="fD6NxuLiDfMajq7Scz1s-22" style="edgeStyle=orthogonalEdgeStyle;rounded=0;orthogonalLoop=1;jettySize=auto;html=1;exitX=0.5;exitY=1;exitDx=0;exitDy=0;fontFamily=Times New Roman;" parent="1" source="fD6NxuLiDfMajq7Scz1s-5" target="fD6NxuLiDfMajq7Scz1s-11" edge="1">
          <mxGeometry relative="1" as="geometry" />
        </mxCell>
        <mxCell id="fD6NxuLiDfMajq7Scz1s-23" style="edgeStyle=orthogonalEdgeStyle;rounded=0;orthogonalLoop=1;jettySize=auto;html=1;exitX=0.5;exitY=1;exitDx=0;exitDy=0;entryX=0.5;entryY=0;entryDx=0;entryDy=0;fontFamily=Times New Roman;" parent="1" source="fD6NxuLiDfMajq7Scz1s-5" target="fD6NxuLiDfMajq7Scz1s-12" edge="1">
          <mxGeometry relative="1" as="geometry" />
        </mxCell>
        <mxCell id="fD6NxuLiDfMajq7Scz1s-24" style="edgeStyle=orthogonalEdgeStyle;rounded=0;orthogonalLoop=1;jettySize=auto;html=1;exitX=0.5;exitY=1;exitDx=0;exitDy=0;fontFamily=Times New Roman;" parent="1" source="fD6NxuLiDfMajq7Scz1s-5" target="fD6NxuLiDfMajq7Scz1s-13" edge="1">
          <mxGeometry relative="1" as="geometry" />
        </mxCell>
        <mxCell id="fD6NxuLiDfMajq7Scz1s-25" style="edgeStyle=orthogonalEdgeStyle;rounded=0;orthogonalLoop=1;jettySize=auto;html=1;exitX=0.5;exitY=1;exitDx=0;exitDy=0;fontFamily=Times New Roman;" parent="1" source="fD6NxuLiDfMajq7Scz1s-5" target="fD6NxuLiDfMajq7Scz1s-14" edge="1">
          <mxGeometry relative="1" as="geometry" />
        </mxCell>
        <mxCell id="fD6NxuLiDfMajq7Scz1s-5" value="Digital Data" style="rounded=0;whiteSpace=wrap;html=1;fontFamily=Times New Roman;fillColor=none;" parent="1" vertex="1">
          <mxGeometry x="350" y="280" width="80" height="40" as="geometry" />
        </mxCell>
        <mxCell id="fD6NxuLiDfMajq7Scz1s-26" style="edgeStyle=orthogonalEdgeStyle;rounded=0;orthogonalLoop=1;jettySize=auto;html=1;exitX=0.5;exitY=1;exitDx=0;exitDy=0;entryX=0.5;entryY=0;entryDx=0;entryDy=0;fontFamily=Times New Roman;" parent="1" source="fD6NxuLiDfMajq7Scz1s-6" edge="1">
          <mxGeometry relative="1" as="geometry">
            <mxPoint x="568" y="360" as="targetPoint" />
          </mxGeometry>
        </mxCell>
        <mxCell id="fD6NxuLiDfMajq7Scz1s-27" style="edgeStyle=orthogonalEdgeStyle;rounded=0;orthogonalLoop=1;jettySize=auto;html=1;exitX=0.5;exitY=1;exitDx=0;exitDy=0;entryX=0.5;entryY=0;entryDx=0;entryDy=0;fontFamily=Times New Roman;" parent="1" source="fD6NxuLiDfMajq7Scz1s-6" target="fD6NxuLiDfMajq7Scz1s-16" edge="1">
          <mxGeometry relative="1" as="geometry" />
        </mxCell>
        <mxCell id="fD6NxuLiDfMajq7Scz1s-28" style="edgeStyle=orthogonalEdgeStyle;rounded=0;orthogonalLoop=1;jettySize=auto;html=1;exitX=0.5;exitY=1;exitDx=0;exitDy=0;entryX=0.5;entryY=0;entryDx=0;entryDy=0;fontFamily=Times New Roman;" parent="1" source="fD6NxuLiDfMajq7Scz1s-6" target="fD6NxuLiDfMajq7Scz1s-17" edge="1">
          <mxGeometry relative="1" as="geometry" />
        </mxCell>
        <mxCell id="fD6NxuLiDfMajq7Scz1s-6" value="Analog Data" style="rounded=0;whiteSpace=wrap;html=1;fontFamily=Times New Roman;fillColor=none;" parent="1" vertex="1">
          <mxGeometry x="613" y="280" width="80" height="40" as="geometry" />
        </mxCell>
        <mxCell id="fD6NxuLiDfMajq7Scz1s-29" style="edgeStyle=orthogonalEdgeStyle;rounded=0;orthogonalLoop=1;jettySize=auto;html=1;exitX=0.5;exitY=1;exitDx=0;exitDy=0;fontFamily=Times New Roman;" parent="1" source="fD6NxuLiDfMajq7Scz1s-7" target="fD6NxuLiDfMajq7Scz1s-18" edge="1">
          <mxGeometry relative="1" as="geometry" />
        </mxCell>
        <mxCell id="fD6NxuLiDfMajq7Scz1s-7" value="Digital Data" style="rounded=0;whiteSpace=wrap;html=1;fontFamily=Times New Roman;fillColor=none;" parent="1" vertex="1">
          <mxGeometry x="743" y="280" width="80" height="40" as="geometry" />
        </mxCell>
        <mxCell id="fD6NxuLiDfMajq7Scz1s-8" value="AM&lt;div&gt;&lt;i&gt;Carrier amplitude&lt;/i&gt;&lt;/div&gt;" style="rounded=0;whiteSpace=wrap;html=1;fontFamily=Times New Roman;fillColor=none;strokeColor=none;" parent="1" vertex="1">
          <mxGeometry x="10" y="360" width="60" height="40" as="geometry" />
        </mxCell>
        <mxCell id="fD6NxuLiDfMajq7Scz1s-9" value="FM&lt;div&gt;&lt;i&gt;Carrier frequency&lt;/i&gt;&lt;/div&gt;" style="rounded=0;whiteSpace=wrap;html=1;fontFamily=Times New Roman;fillColor=none;strokeColor=none;" parent="1" vertex="1">
          <mxGeometry x="70" y="360" width="80" height="40" as="geometry" />
        </mxCell>
        <mxCell id="fD6NxuLiDfMajq7Scz1s-10" value="PM&lt;div&gt;&lt;i&gt;Carrier phase&lt;/i&gt;&lt;/div&gt;" style="rounded=0;whiteSpace=wrap;html=1;fontFamily=Times New Roman;fillColor=none;strokeColor=none;" parent="1" vertex="1">
          <mxGeometry x="150" y="360" width="80" height="40" as="geometry" />
        </mxCell>
        <mxCell id="fD6NxuLiDfMajq7Scz1s-11" value="ASK&lt;div&gt;&lt;i&gt;Carrier amplitude&lt;/i&gt;&lt;/div&gt;" style="rounded=0;whiteSpace=wrap;html=1;fontFamily=Times New Roman;fillColor=none;strokeColor=none;" parent="1" vertex="1">
          <mxGeometry x="240" y="360" width="80" height="40" as="geometry" />
        </mxCell>
        <mxCell id="fD6NxuLiDfMajq7Scz1s-12" value="FSK&lt;div&gt;&lt;i&gt;Carrier frequency&lt;/i&gt;&lt;/div&gt;" style="rounded=0;whiteSpace=wrap;html=1;fontFamily=Times New Roman;fillColor=none;strokeColor=none;" parent="1" vertex="1">
          <mxGeometry x="320" y="360" width="70" height="40" as="geometry" />
        </mxCell>
        <mxCell id="fD6NxuLiDfMajq7Scz1s-13" value="PSK&lt;div&gt;&lt;i&gt;Carrier phase&lt;/i&gt;&lt;/div&gt;" style="rounded=0;whiteSpace=wrap;html=1;fontFamily=Times New Roman;fillColor=none;strokeColor=none;" parent="1" vertex="1">
          <mxGeometry x="380" y="360" width="80" height="40" as="geometry" />
        </mxCell>
        <mxCell id="fD6NxuLiDfMajq7Scz1s-14" value="QAM&lt;div&gt;&lt;i&gt;Carrier amp. &amp;amp; phase&lt;/i&gt;&lt;/div&gt;" style="rounded=0;whiteSpace=wrap;html=1;fontFamily=Times New Roman;fillColor=none;strokeColor=none;" parent="1" vertex="1">
          <mxGeometry x="460" y="360" width="70" height="60" as="geometry" />
        </mxCell>
        <mxCell id="fD6NxuLiDfMajq7Scz1s-15" value="PAM&lt;div&gt;&lt;i&gt;Pulse amplitude&lt;/i&gt;&lt;/div&gt;" style="rounded=0;whiteSpace=wrap;html=1;fontFamily=Times New Roman;fillColor=none;strokeColor=none;" parent="1" vertex="1">
          <mxGeometry x="530" y="360" width="70" height="40" as="geometry" />
        </mxCell>
        <mxCell id="fD6NxuLiDfMajq7Scz1s-16" value="PWM&lt;div&gt;&lt;i&gt;Pulse width&lt;/i&gt;&lt;/div&gt;" style="rounded=0;whiteSpace=wrap;html=1;fontFamily=Times New Roman;fillColor=none;strokeColor=none;" parent="1" vertex="1">
          <mxGeometry x="613" y="360" width="80" height="40" as="geometry" />
        </mxCell>
        <mxCell id="fD6NxuLiDfMajq7Scz1s-17" value="PWM&lt;div&gt;&lt;i&gt;Pulse position&lt;/i&gt;&lt;/div&gt;" style="rounded=0;whiteSpace=wrap;html=1;fontFamily=Times New Roman;fillColor=none;strokeColor=none;" parent="1" vertex="1">
          <mxGeometry x="693" y="360" width="70" height="40" as="geometry" />
        </mxCell>
        <mxCell id="fD6NxuLiDfMajq7Scz1s-18" value="PCM&lt;div&gt;&lt;i&gt;Pulse coding&lt;/i&gt;&lt;/div&gt;" style="rounded=0;whiteSpace=wrap;html=1;fontFamily=Times New Roman;fillColor=none;strokeColor=none;" parent="1" vertex="1">
          <mxGeometry x="753" y="360" width="60" height="40" as="geometry" />
        </mxCell>
      </root>
    </mxGraphModel>
  </diagram>
</mxfile>
